<?xml version="1.0" standalone="no"?>
<!DOCTYPE svg PUBLIC "-//W3C//DTD SVG 20010904//EN"
 "http://www.w3.org/TR/2001/REC-SVG-20010904/DTD/svg10.dtd">
<svg version="1.0" xmlns="http://www.w3.org/2000/svg"
 width="1080.000000pt" height="365.000000pt" viewBox="0 0 1080.000000 365.000000"
 preserveAspectRatio="xMidYMid meet">
<metadata>
Created by potrace 1.16, written by Peter Selinger 2001-2019
</metadata>
<g transform="translate(0.000000,365.000000) scale(0.100000,-0.100000)"
fill="#000000" stroke="none">
<path d="M0 1825 l0 -1825 5400 0 5400 0 0 1825 0 1825 -5400 0 -5400 0 0
-1825z m2320 331 l0 -394 -110 -61 c-61 -34 -114 -61 -118 -61 -4 0 -7 205 -8
455 l-1 455 119 0 118 0 0 -394z m681 227 c112 -91 238 -197 281 -235 42 -37
81 -68 87 -68 8 0 11 72 11 235 l0 235 115 0 115 0 0 -390 0 -390 -93 0 c-84
0 -96 2 -122 24 -17 14 -82 68 -145 120 -63 53 -173 144 -245 202 l-130 106
-5 -228 -5 -228 -85 -47 c-47 -26 -90 -52 -96 -57 -5 -5 -20 -15 -32 -21 l-22
-12 0 461 0 460 84 0 83 0 204 -167z m1879 82 l-85 -85 -301 0 -302 0 -31 -35
c-17 -20 -31 -38 -31 -40 0 -2 14 -20 31 -40 l31 -35 303 0 302 0 49 -65 c27
-36 64 -86 82 -110 19 -24 32 -49 30 -56 -2 -6 -40 -60 -83 -120 l-80 -108
-455 0 -455 -1 85 85 85 85 300 0 301 0 28 29 c30 31 29 38 -7 79 -20 22 -22
22 -321 22 l-301 0 -81 108 c-45 59 -84 112 -88 119 -3 6 27 56 68 111 40 54
79 109 85 121 l12 21 457 0 457 0 -85 -85z m1219 -4 l91 -89 0 -301 0 -301
-115 0 -115 0 0 115 0 115 -245 0 -244 0 -3 -117 -3 -117 -105 -63 c-58 -34
-109 -62 -115 -63 -6 0 -10 128 -10 365 l0 365 90 90 90 90 296 0 297 0 91
-89z m594 57 c22 -18 53 -43 67 -55 35 -30 160 -132 206 -168 84 -67 220 -183
233 -198 7 -10 20 -17 27 -17 12 0 14 42 14 235 l0 235 115 0 115 0 0 -390 0
-390 -94 0 c-56 0 -97 4 -101 11 -4 6 -26 24 -48 40 -23 17 -87 68 -142 114
-55 46 -157 131 -227 189 l-128 106 -2 -232 -3 -232 -60 -34 c-33 -19 -73 -43
-90 -53 -16 -10 -42 -25 -57 -34 l-28 -16 0 461 0 460 81 0 c75 0 83 -2 122
-32z m1937 -53 l-85 -85 -267 0 -268 0 0 -75 0 -75 292 0 293 0 -80 -80 -80
-80 -212 0 -213 0 0 -65 0 -65 337 0 338 0 -85 -85 -85 -85 -370 0 -370 0 0
390 0 390 470 0 470 0 -85 -85z m-4930 -983 c0 -2 -26 -30 -59 -63 l-58 -59
-187 0 -186 0 0 -155 0 -155 158 3 157 2 3 53 3 52 -58 0 c-57 0 -59 2 -115
55 l-58 55 193 0 192 0 -2 -107 -2 -108 -57 -62 -57 -63 -191 0 -190 0 -68 67
-68 67 0 145 0 145 65 66 65 65 260 0 c143 0 260 -2 260 -3z m777 -62 l63 -62
0 -214 0 -214 -80 0 -80 0 0 85 0 85 -170 0 -170 0 0 -79 0 -79 -57 -32 c-32
-18 -68 -40 -80 -48 l-23 -14 0 254 0 254 60 61 c33 34 65 63 70 65 6 2 99 2
207 1 l197 -1 63 -62z m589 -97 c63 -87 118 -159 123 -161 5 -2 22 15 37 38
16 22 54 74 84 114 30 41 62 84 70 97 47 70 50 71 143 73 l87 1 1 -275 1 -275
-76 -3 -76 -3 0 181 c0 116 -4 180 -10 178 -5 -1 -29 -31 -52 -64 -24 -34 -67
-96 -97 -138 l-55 -76 -55 0 -56 0 -80 116 c-105 152 -115 164 -127 164 -8 0
-9 -53 -4 -174 l7 -173 -38 -23 c-59 -35 -121 -70 -126 -70 -3 0 -1 632 2 637
0 1 42 0 92 -2 l91 -3 114 -159z m924 -113 l0 -275 -73 -40 c-39 -22 -75 -41
-79 -43 -5 -2 -8 140 -8 315 l0 320 80 -1 80 0 0 -276z m443 187 c62 -50 154
-125 204 -169 l93 -78 2 167 3 168 78 1 77 1 0 -278 0 -279 -58 0 c-42 0 -62
5 -74 18 -8 9 -44 40 -78 67 -35 28 -116 94 -181 148 -65 53 -121 97 -124 97
-3 0 -5 -73 -5 -162 l0 -163 -73 -40 c-39 -22 -75 -41 -79 -43 -5 -2 -8 141
-8 317 l0 321 56 -1 c55 -2 58 -3 167 -92z m1317 83 c0 -2 -26 -30 -57 -62
l-57 -58 -188 0 -189 0 3 -152 3 -153 155 0 155 0 3 53 3 52 -58 0 c-58 0 -59
1 -113 55 l-54 55 192 0 192 0 -1 -107 -1 -106 -60 -64 -61 -63 -194 0 -193 0
-65 68 -64 67 -1 145 0 144 65 66 65 65 260 0 c143 0 260 -2 260 -5z"/>
<path d="M3486 2281 l-38 -27 -2 -94 c-1 -85 -4 -94 -25 -108 -53 -36 -119
-19 -188 47 -13 13 -19 13 -41 0 -29 -16 -41 -39 -20 -39 7 0 29 -14 48 -31
19 -17 46 -38 60 -47 26 -17 41 -30 96 -81 43 -39 90 -61 129 -61 l34 0 3 235
c2 152 -1 235 -7 234 -5 0 -27 -13 -49 -28z"/>
<path d="M4091 2468 c-55 -67 -81 -101 -81 -109 0 -5 -7 -9 -15 -9 -9 0 -12
-6 -8 -17 4 -11 3 -14 -5 -9 -18 11 -14 -6 11 -43 12 -19 30 -49 40 -65 46
-77 45 -76 211 -76 83 0 158 5 166 10 18 12 17 12 -85 10 -99 -1 -175 13 -187
34 -5 9 -16 16 -25 16 -9 0 -14 3 -10 6 3 4 0 12 -7 20 -8 7 -13 36 -13 68 0
50 3 57 39 93 21 21 41 37 43 36 13 -7 45 -2 41 6 -4 5 114 10 281 10 157 1
291 5 297 8 25 16 -68 22 -364 23 -246 0 -321 -3 -329 -12z"/>
<path d="M5474 2371 c-2 -2 -4 -49 -4 -103 l0 -98 245 0 246 0 -3 103 -3 102
-238 0 c-131 0 -240 -2 -243 -4z"/>
<path d="M6068 2019 l-47 -30 4 -64 c2 -35 6 -69 10 -75 3 -5 24 -10 46 -10
l39 0 0 105 c0 58 -1 105 -2 104 -2 0 -24 -14 -50 -30z"/>
<path d="M6566 2471 c-4 -5 -2 -21 4 -36 10 -26 11 -27 35 -11 39 25 42 19 7
-13 -35 -33 -42 -54 -14 -45 11 4 8 -2 -8 -14 l-25 -20 2 -269 c1 -147 2 -274
2 -280 1 -14 31 -18 31 -5 0 4 14 13 30 19 l31 12 -2 206 c-1 196 0 209 20
236 25 33 26 43 6 35 -8 -3 -15 -1 -15 5 0 7 10 9 24 5 21 -5 23 -3 20 29 -1
24 3 38 14 44 13 8 14 12 3 25 -18 21 -43 20 -73 -4 -26 -20 -38 -18 -38 8 0
9 3 12 7 9 10 -10 33 13 33 33 0 26 -81 53 -94 31z"/>
<path d="M7317 2473 c-2 -4 -5 -84 -6 -178 -3 -236 -10 -256 -91 -260 -26 -1
-52 10 -103 43 -37 25 -74 53 -81 63 -16 24 -167 139 -182 139 -6 0 -18 -7
-25 -16 -11 -14 -10 -19 11 -35 28 -22 108 -89 124 -104 30 -29 138 -115 144
-115 4 0 30 -21 57 -46 94 -85 152 -125 184 -126 17 -1 34 1 37 4 3 3 6 147 7
319 l2 314 -37 3 c-20 2 -38 -1 -41 -5z"/>
<path d="M7850 2478 c-1 -1 -1 -145 -1 -318 l-1 -315 196 -1 c108 -1 196 2
196 7 0 10 0 10 -105 14 -140 5 -171 20 -187 96 -13 63 -5 118 21 151 18 21
28 23 135 26 64 2 116 7 116 12 0 4 -39 8 -87 9 -177 3 -188 11 -188 148 0 89
1 95 25 113 18 14 27 15 32 7 5 -8 8 -6 8 6 0 15 11 17 92 17 150 0 88 17 -89
25 -90 4 -163 5 -163 3z"/>
<path d="M4038 1290 l4 -70 168 0 168 0 4 70 3 70 -175 0 -175 0 3 -70z"/>
</g>
</svg>
